<mxfile host="app.diagrams.net" modified="2023-03-13T05:48:44.982Z" agent="5.0 (Windows NT 10.0; Win64; x64) AppleWebKit/537.36 (KHTML, like Gecko) Chrome/108.0.0.0 Safari/537.36" etag="E_9lxOw2ydUTELc1sBiZ" version="21.0.6" type="github">
  <diagram id="R2lEEEUBdFMjLlhIrx00" name="Page-1">
    <mxGraphModel dx="756" dy="424" grid="1" gridSize="10" guides="1" tooltips="1" connect="1" arrows="1" fold="1" page="1" pageScale="1" pageWidth="850" pageHeight="1100" math="0" shadow="0" extFonts="Permanent Marker^https://fonts.googleapis.com/css?family=Permanent+Marker">
      <root>
        <mxCell id="0" />
        <mxCell id="1" parent="0" />
        <mxCell id="8JJS55Rug76tpPf3a6dA-3" value="PENJUAL" style="rounded=0;whiteSpace=wrap;html=1;labelBackgroundColor=default;" vertex="1" parent="1">
          <mxGeometry x="670" y="100" width="130" height="40" as="geometry" />
        </mxCell>
        <mxCell id="8JJS55Rug76tpPf3a6dA-4" value="PEMBELI" style="rounded=0;whiteSpace=wrap;html=1;labelBackgroundColor=default;" vertex="1" parent="1">
          <mxGeometry x="250" y="410" width="120" height="40" as="geometry" />
        </mxCell>
        <mxCell id="8JJS55Rug76tpPf3a6dA-10" value="BARANG" style="rounded=0;whiteSpace=wrap;html=1;labelBackgroundColor=default;" vertex="1" parent="1">
          <mxGeometry x="250" y="100" width="120" height="40" as="geometry" />
        </mxCell>
        <mxCell id="8JJS55Rug76tpPf3a6dA-11" value="TRANSAKSI" style="rounded=0;whiteSpace=wrap;html=1;labelBackgroundColor=default;" vertex="1" parent="1">
          <mxGeometry x="675" y="410" width="120" height="40" as="geometry" />
        </mxCell>
        <mxCell id="8JJS55Rug76tpPf3a6dA-13" value="BELI" style="rhombus;whiteSpace=wrap;html=1;" vertex="1" parent="1">
          <mxGeometry x="270" y="230" width="80" height="80" as="geometry" />
        </mxCell>
        <mxCell id="8JJS55Rug76tpPf3a6dA-14" value="JUAL" style="rhombus;whiteSpace=wrap;html=1;" vertex="1" parent="1">
          <mxGeometry x="480" y="80" width="80" height="80" as="geometry" />
        </mxCell>
        <mxCell id="8JJS55Rug76tpPf3a6dA-15" value="LAKUKAN" style="rhombus;whiteSpace=wrap;html=1;" vertex="1" parent="1">
          <mxGeometry x="480" y="390" width="80" height="80" as="geometry" />
        </mxCell>
        <mxCell id="8JJS55Rug76tpPf3a6dA-16" value="TERIMA" style="rhombus;whiteSpace=wrap;html=1;" vertex="1" parent="1">
          <mxGeometry x="695" y="240" width="80" height="80" as="geometry" />
        </mxCell>
        <mxCell id="8JJS55Rug76tpPf3a6dA-18" value="" style="edgeStyle=entityRelationEdgeStyle;fontSize=12;html=1;endArrow=ERoneToMany;rounded=0;entryX=1;entryY=0.5;entryDx=0;entryDy=0;exitX=0;exitY=0.5;exitDx=0;exitDy=0;" edge="1" parent="1" source="8JJS55Rug76tpPf3a6dA-14" target="8JJS55Rug76tpPf3a6dA-10">
          <mxGeometry width="100" height="100" relative="1" as="geometry">
            <mxPoint x="400" y="250" as="sourcePoint" />
            <mxPoint x="500" y="150" as="targetPoint" />
          </mxGeometry>
        </mxCell>
        <mxCell id="8JJS55Rug76tpPf3a6dA-19" value="" style="edgeStyle=entityRelationEdgeStyle;fontSize=12;html=1;endArrow=ERone;endFill=1;rounded=0;entryX=0;entryY=0.5;entryDx=0;entryDy=0;exitX=1;exitY=0.5;exitDx=0;exitDy=0;" edge="1" parent="1" source="8JJS55Rug76tpPf3a6dA-14" target="8JJS55Rug76tpPf3a6dA-3">
          <mxGeometry width="100" height="100" relative="1" as="geometry">
            <mxPoint x="370" y="350" as="sourcePoint" />
            <mxPoint x="470" y="250" as="targetPoint" />
          </mxGeometry>
        </mxCell>
        <mxCell id="8JJS55Rug76tpPf3a6dA-25" value="" style="fontSize=12;html=1;endArrow=ERone;endFill=1;rounded=0;entryX=0.5;entryY=0;entryDx=0;entryDy=0;exitX=0.5;exitY=1;exitDx=0;exitDy=0;" edge="1" parent="1" source="8JJS55Rug76tpPf3a6dA-13" target="8JJS55Rug76tpPf3a6dA-4">
          <mxGeometry width="100" height="100" relative="1" as="geometry">
            <mxPoint x="680" y="130" as="sourcePoint" />
            <mxPoint x="570" y="130" as="targetPoint" />
            <Array as="points">
              <mxPoint x="310" y="360" />
            </Array>
          </mxGeometry>
        </mxCell>
        <mxCell id="8JJS55Rug76tpPf3a6dA-27" value="" style="fontSize=12;html=1;endArrow=ERoneToMany;rounded=0;entryX=0.5;entryY=1;entryDx=0;entryDy=0;exitX=0.5;exitY=0;exitDx=0;exitDy=0;" edge="1" parent="1" source="8JJS55Rug76tpPf3a6dA-13" target="8JJS55Rug76tpPf3a6dA-10">
          <mxGeometry width="100" height="100" relative="1" as="geometry">
            <mxPoint x="310" y="220" as="sourcePoint" />
            <mxPoint x="510" y="240" as="targetPoint" />
            <Array as="points">
              <mxPoint x="310" y="190" />
            </Array>
          </mxGeometry>
        </mxCell>
        <mxCell id="8JJS55Rug76tpPf3a6dA-28" value="" style="edgeStyle=entityRelationEdgeStyle;fontSize=12;html=1;endArrow=ERone;endFill=1;rounded=0;entryX=1;entryY=0.5;entryDx=0;entryDy=0;exitX=0;exitY=0.5;exitDx=0;exitDy=0;" edge="1" parent="1" source="8JJS55Rug76tpPf3a6dA-15" target="8JJS55Rug76tpPf3a6dA-4">
          <mxGeometry width="100" height="100" relative="1" as="geometry">
            <mxPoint x="570" y="130" as="sourcePoint" />
            <mxPoint x="680" y="130" as="targetPoint" />
          </mxGeometry>
        </mxCell>
        <mxCell id="8JJS55Rug76tpPf3a6dA-29" value="" style="edgeStyle=entityRelationEdgeStyle;fontSize=12;html=1;endArrow=ERoneToMany;rounded=0;entryX=0;entryY=0.5;entryDx=0;entryDy=0;" edge="1" parent="1" source="8JJS55Rug76tpPf3a6dA-15" target="8JJS55Rug76tpPf3a6dA-11">
          <mxGeometry width="100" height="100" relative="1" as="geometry">
            <mxPoint x="660" y="320" as="sourcePoint" />
            <mxPoint x="550" y="320" as="targetPoint" />
          </mxGeometry>
        </mxCell>
        <mxCell id="8JJS55Rug76tpPf3a6dA-30" value="" style="fontSize=12;html=1;endArrow=ERoneToMany;rounded=0;entryX=0.5;entryY=0;entryDx=0;entryDy=0;exitX=0.5;exitY=1;exitDx=0;exitDy=0;" edge="1" parent="1" source="8JJS55Rug76tpPf3a6dA-16" target="8JJS55Rug76tpPf3a6dA-11">
          <mxGeometry width="100" height="100" relative="1" as="geometry">
            <mxPoint x="320" y="240" as="sourcePoint" />
            <mxPoint x="320" y="150" as="targetPoint" />
            <Array as="points">
              <mxPoint x="735" y="350" />
            </Array>
          </mxGeometry>
        </mxCell>
        <mxCell id="8JJS55Rug76tpPf3a6dA-31" value="" style="fontSize=12;html=1;endArrow=ERone;endFill=1;rounded=0;entryX=0.5;entryY=1;entryDx=0;entryDy=0;exitX=0.5;exitY=0;exitDx=0;exitDy=0;" edge="1" parent="1" source="8JJS55Rug76tpPf3a6dA-16" target="8JJS55Rug76tpPf3a6dA-3">
          <mxGeometry width="100" height="100" relative="1" as="geometry">
            <mxPoint x="320" y="320" as="sourcePoint" />
            <mxPoint x="320" y="420" as="targetPoint" />
            <Array as="points">
              <mxPoint x="735" y="200" />
            </Array>
          </mxGeometry>
        </mxCell>
        <mxCell id="8JJS55Rug76tpPf3a6dA-34" value="&lt;font style=&quot;font-size: 8px;&quot;&gt;ID_BARANG&lt;/font&gt;" style="ellipse;whiteSpace=wrap;html=1;" vertex="1" parent="1">
          <mxGeometry x="205" y="52" width="60" height="40" as="geometry" />
        </mxCell>
        <mxCell id="8JJS55Rug76tpPf3a6dA-35" value="&lt;span style=&quot;font-size: 8px;&quot;&gt;NAMA&lt;/span&gt;" style="ellipse;whiteSpace=wrap;html=1;" vertex="1" parent="1">
          <mxGeometry x="276" y="39" width="60" height="40" as="geometry" />
        </mxCell>
        <mxCell id="8JJS55Rug76tpPf3a6dA-36" value="&lt;font style=&quot;font-size: 8px;&quot;&gt;STOK&lt;/font&gt;" style="ellipse;whiteSpace=wrap;html=1;" vertex="1" parent="1">
          <mxGeometry x="348" y="50" width="60" height="40" as="geometry" />
        </mxCell>
        <mxCell id="8JJS55Rug76tpPf3a6dA-38" value="&lt;span style=&quot;font-size: 8px;&quot;&gt;HARGA&lt;/span&gt;" style="ellipse;whiteSpace=wrap;html=1;" vertex="1" parent="1">
          <mxGeometry x="165" y="100" width="60" height="40" as="geometry" />
        </mxCell>
        <mxCell id="8JJS55Rug76tpPf3a6dA-39" value="&lt;span style=&quot;font-size: 8px;&quot;&gt;SATUAN&lt;/span&gt;" style="ellipse;whiteSpace=wrap;html=1;" vertex="1" parent="1">
          <mxGeometry x="203" y="154" width="60" height="40" as="geometry" />
        </mxCell>
        <mxCell id="8JJS55Rug76tpPf3a6dA-40" value="" style="endArrow=none;html=1;rounded=0;entryX=0.5;entryY=1;entryDx=0;entryDy=0;exitX=0.5;exitY=0;exitDx=0;exitDy=0;" edge="1" parent="1" source="8JJS55Rug76tpPf3a6dA-10" target="8JJS55Rug76tpPf3a6dA-36">
          <mxGeometry width="50" height="50" relative="1" as="geometry">
            <mxPoint x="400" y="240" as="sourcePoint" />
            <mxPoint x="450" y="190" as="targetPoint" />
          </mxGeometry>
        </mxCell>
        <mxCell id="8JJS55Rug76tpPf3a6dA-41" value="" style="endArrow=none;html=1;rounded=0;entryX=0.5;entryY=1;entryDx=0;entryDy=0;exitX=0.5;exitY=0;exitDx=0;exitDy=0;" edge="1" parent="1" source="8JJS55Rug76tpPf3a6dA-10" target="8JJS55Rug76tpPf3a6dA-35">
          <mxGeometry width="50" height="50" relative="1" as="geometry">
            <mxPoint x="400" y="240" as="sourcePoint" />
            <mxPoint x="450" y="190" as="targetPoint" />
          </mxGeometry>
        </mxCell>
        <mxCell id="8JJS55Rug76tpPf3a6dA-42" value="" style="endArrow=none;html=1;rounded=0;entryX=0.5;entryY=1;entryDx=0;entryDy=0;" edge="1" parent="1" target="8JJS55Rug76tpPf3a6dA-34">
          <mxGeometry width="50" height="50" relative="1" as="geometry">
            <mxPoint x="310" y="100" as="sourcePoint" />
            <mxPoint x="450" y="190" as="targetPoint" />
            <Array as="points">
              <mxPoint x="310" y="100" />
            </Array>
          </mxGeometry>
        </mxCell>
        <mxCell id="8JJS55Rug76tpPf3a6dA-43" value="" style="endArrow=none;html=1;rounded=0;" edge="1" parent="1" source="8JJS55Rug76tpPf3a6dA-10">
          <mxGeometry width="50" height="50" relative="1" as="geometry">
            <mxPoint x="400" y="240" as="sourcePoint" />
            <mxPoint x="260" y="170" as="targetPoint" />
          </mxGeometry>
        </mxCell>
        <mxCell id="8JJS55Rug76tpPf3a6dA-45" value="" style="endArrow=none;html=1;rounded=0;entryX=1;entryY=0.5;entryDx=0;entryDy=0;exitX=0;exitY=0.5;exitDx=0;exitDy=0;" edge="1" parent="1" source="8JJS55Rug76tpPf3a6dA-10" target="8JJS55Rug76tpPf3a6dA-38">
          <mxGeometry width="50" height="50" relative="1" as="geometry">
            <mxPoint x="240" y="120" as="sourcePoint" />
            <mxPoint x="450" y="190" as="targetPoint" />
          </mxGeometry>
        </mxCell>
      </root>
    </mxGraphModel>
  </diagram>
</mxfile>
